<svg xmlns="http://www.w3.org/2000/svg" viewBox="0 0 393 393"><defs><style>.cls-1,.cls-2{fill:none;}.cls-1{opacity:0;}.cls-2{stroke:#000;stroke-miterlimit:10;stroke-width:7px;}</style></defs><title>Asset 12</title><g id="Layer_2" data-name="Layer 2"><g id="Layer_1-2" data-name="Layer 1"><rect class="cls-1" width="393" height="393"/><path class="cls-2" d="M346.66,272.16c-3.52,1.64-6.94,3.55-10.57,4.88-21.63,7.95-43.59,14.73-67.93,17.28,8.49,2,14.9,2.06,23.8.41,20.12-3.71,39.22-10.46,57.7-19.15,3.37-1.59,6.49-4.55,11.62-3.08,2,6.15,1.79,12.73.49,19.15-.49,2.39-2.61,4.86-4.64,6.43a42.75,42.75,0,0,1-9.23,5c-22.79,9.87-46.71,15.44-71.26,18.52-6.6.82-13.2,1.64-19.83,2.16-26.55,2.08-52.27-2.63-77.45-10.41Q134,299.32,89,284.27c-11.07-3.69-21.7-8.69-31.89-12.82-3.91-12.05-4-13.39-1.35-21.66,5.44.57,10,3.72,14.86,5.86,4.64,2,9.23,4.26,13.92,6.19A57.59,57.59,0,0,0,100.07,266c-5.55-5.16-12.54-7.49-19.12-10.51s-13.55-5.87-20.16-8.72c-7.55-41.37-18.22-81.63-30.54-122.42,12.63,2.34,24.32,5.37,36.18,6.44s24.2.24,37.14.24c2.2-2.57,4.71-5.48,7.2-8.42,7.24-8.56,15.77-15,27-17.54,7.58-1.7,15-4.13,23-6.38,1.38,2.15,2.75,4,3.76,5.93,2,3.83,3.59,7.83,5.59,11.63,3.39,6.44,6.06,7.71,13.36,5.83,6.8-1.76,13.49-4,20.22-6,4.86-1.47,9.78-2.78,14.55-4.52,7.16-2.6,8.77-6,6.83-13.64-1.13-4.48-2.35-8.93-3.63-13.76,7.89-3.88,14.88-5.87,22.61-1.2,4,2.4,8.47,4,12.83,5.72,2.82,1.12,5.85,3,8.79.46,3.32-2.91,1.75-6.47.81-9.82s-2-6.59-3.27-10.52c5.68,4.93,6.43,5.79,8.49,12,1.94,5.94,3.62,12,5.31,18q9.5,33.87,18.9,67.78c.72,2.59,1,5.29,1.65,8.45-8,1.95-15.74.94-23.91,1.26-1.89-2.88-3.77-5.79-5.7-8.66-6.31-9.42-12.67-18.81-19-28.24-3.15-4.72-7.46-6.68-13.05-5.93a47.13,47.13,0,0,0-7,.94c-12.38,3.58-24.74,7.22-37,11.06a38.73,38.73,0,0,0-8.42,4,6.79,6.79,0,0,0-3.18,8.14,49.56,49.56,0,0,0,4.46,10.8c3.95,6.73,8.35,13.21,12.59,19.78,1.48,2.28,3,4.51,5,7.45-2.63,1.43-4.81,2.76-7.12,3.84-8.86,4.11-17.8,8.06-26.61,12.28-2,.93-3.48,2.73-5.2,4.14-2.59-.23-4.59.15-3.66,3.5a6.33,6.33,0,0,0-2-1c-.57-.07-1.2.37-1.8.59.49.25,1,.72,1.47.72a9.62,9.62,0,0,0,2.19-.5l3.59-3.53c2.61-.54,5.34-.72,7.79-1.67,9.09-3.52,18.08-7.32,27.13-10.94,2.11-.85,4.34-1.41,7-2.26,2.26,3.08,4.11,6,6.36,8.59,4.35,5,8.51,10.24,13.5,14.52,5.9,5.05,12.72,6.44,20.75,4,12.67-3.84,25.71-6.48,38.54-9.79a86.87,86.87,0,0,0,14.43-4.59c5.23-2.39,6.25-7.26,2.6-11.52a59.77,59.77,0,0,0-9.46-8.65c-5-3.77-10.23-7.14-15.22-10.58-.15-2.45,1.49-2.64,3-2.78,8.83-.87,16.87,2.45,25.05,4.92,1.73.52,3.18,2.18,4.62,3.48,1.74,1.56,3.37,3.25,5,5,25.89,27.7,20.71,21.24,31.27,51.08,2.85,8,5.48,16.16,8,23.49-1.34,4.44-4.73,3.4-7.08,4.4l-1.13-2.22c-.08.31-.32.79-.21.89A12.67,12.67,0,0,0,346.66,272.16ZM239.35,289.32a3.94,3.94,0,0,0,4.55-2.68c2.28-5.8,4.43-11.66,6.9-17.38,3.17-7.36,7.68-13.79,15.52-16.68a169.19,169.19,0,0,1,43.11-10.26,20.17,20.17,0,0,1,17.82,7c3.6,4.11,7.06,8.34,10.74,12.37.68.75,1.28,3.05,3.87.88-3.22-4.38-6.46-8.67-9.58-13-6.56-9.22-15.58-12.26-26.54-11.24-13.32,1.25-26.07,4.82-38.64,9a28.68,28.68,0,0,0-17.66,16.1c-1.88,4.26-3.21,8.76-4.88,13.13s-3.38,8.6-5,13c0,.75-.11,1.49-.14,2.24a9.59,9.59,0,0,0,.07,1.06c.29-.51.88-1.06.81-1.52A7.16,7.16,0,0,0,239.35,289.32ZM125.6,206.38c-.76-10.44-4.54-21.19-15.06-28.38C99,170.08,86.3,174.11,81,187.08A28.2,28.2,0,0,0,79.14,202c1.87,12.56,7,23.12,19.41,28.44,8.64,3.71,17.31,1,22.46-6.83C124.09,218.92,125.48,213.69,125.6,206.38ZM141,277.94c15.87,12,62.44,22.49,83.52,18.59-14.49-2.68-28.27-4.81-41.85-7.85C168.78,285.58,155.08,281.61,141,277.94Z"/><path class="cls-2" d="M176.53,117.12a87.64,87.64,0,0,1-8.65-18.83c9.42-4.41,37-11.53,48-12.41,1,2.72,2.21,5.55,3.08,8.48s1.39,6,2.21,9.63a12.3,12.3,0,0,1-2.91,2c-12.26,3.86-24.53,7.68-36.84,11.36C180.05,117.73,178.41,117.23,176.53,117.12Z"/><path class="cls-2" d="M207.37,194a34.86,34.86,0,0,1-7.12-14.4c13.28-6.6,42.2-16.7,51.18-17.78,4,4.72,8.59,9.31,11.35,15.59-9.92,2.54-19.41,4.66-28.7,7.44C225.16,187.48,216.46,190.83,207.37,194Z"/><path class="cls-2" d="M197.62,175.08c-1.48-2.88-2.83-5.2-3.89-7.65-1.22-2.84-2.19-5.79-3.39-9,7.37-5.53,16.12-6.07,24.2-8.31,7.8-2.16,15.63-4.64,23.79-4.8,3.81,4,7.28,7.54,9.5,12.81-9.05,2.74-17.57,5.08-25.92,7.9C213.87,168.71,206,171.93,197.62,175.08Z"/><path class="cls-2" d="M280.36,193.58c-8.43,1.37-17,2.07-25.23,4.26-11.19,3-22.08,7.1-34.1,11.06-3.75-1.74-6.87-5.43-9.82-10.51,2.82-1.3,5.11-2.5,7.51-3.42a262.19,262.19,0,0,1,39-11.9c5.32-1.14,9.69-.37,13.77,3.73,2.56,2.58,4.37,6.58,8.87,6.77Z"/><path class="cls-2" d="M280.32,193.57a24,24,0,0,0,2.15,3.52c2,2.28,4.12,4.41,6.58,7-1.61,1-2.44,1.83-3.41,2-14.61,2.69-29.15,5.62-42.95,11.37-6.11,2.55-11.13.85-16.5-4.43,3.59-1.75,6.13-3.41,8.92-4.29,12.65-4,25.39-7.71,38-11.69,2.52-.79,4.81-2.31,7.21-3.49Z"/><path class="cls-2" d="M120.62,206.91c-.13,10.06-4.6,17.39-11.38,19.58-6,1.93-13.62-1.43-18.78-8.81-6.09-8.7-8.72-18.2-4.72-28.59s13.55-13.1,22.56-6.5C116.8,188.81,119.86,197.81,120.62,206.91Z"/></g></g></svg>