<svg xmlns="http://www.w3.org/2000/svg" viewBox="0 0 393 393"><defs><style>.cls-1,.cls-2{fill:none;}.cls-1{opacity:0;}.cls-2{stroke:#000;stroke-miterlimit:10;stroke-width:7px;}</style></defs><title>Asset 15</title><g id="Layer_2" data-name="Layer 2"><g id="Layer_1-2" data-name="Layer 1"><rect class="cls-1" width="393" height="393"/><path class="cls-2" d="M201.31,332.61c-30.07,0-57.71-8-82.43-25.16a318.2,318.2,0,0,1-29.09-22.8c-10.46-9.2-14-21.78-14.78-35.32a4.42,4.42,0,0,0-.88-2.8c-8.95-7.83-11-18.83-13.22-29.54-2.63-12.44-2.43-25.06-.81-37.64A13.89,13.89,0,0,1,61.56,174c4.28-7,5.91-14.83,8.07-22.63,8.5-30.68,26.4-53.68,56.31-66.35a6.67,6.67,0,0,0,2.41-1.3C138.89,72.17,153.08,67.53,167.54,64c25.4-6.15,50.52-4.4,75.13,4.53,6.59,2.39,13.45,4.08,20,6.62,28.1,10.95,47.46,31.12,60.86,57.74,6.8,13.51,9.33,27.79,9.72,42.65.28,10.72,1.12,21.45.79,32.15a105.5,105.5,0,0,1-8.85,38.15c-2.54,6-4.56,11.84-4.52,18.43a13.71,13.71,0,0,1-2.38,7c-23.42,36.42-56.63,56.73-99.9,60.32C212.7,332.05,207,332.27,201.31,332.61Zm77.78-231.89a14.73,14.73,0,0,0-1.31-2.35C264.61,82,248.23,70.76,227.23,67.1c-5.08-.89-10.24-1.37-15.38-1.91-24.22-2.55-47.57.72-69.8,10.87-3.36,1.53-6.41,3.74-9.6,5.64,5.66,1.19,11,1.23,16.15,2a156.51,156.51,0,0,1,46,14.71,7.13,7.13,0,0,0,4.8.31C226.08,90.46,252.53,90.87,279.09,100.72Zm12.18,198c-7.31,1.54-13.7,2.61-19.92,4.3-4.18,1.13-6.86.31-8.46-3.75-1-2.48-2.77-3-5.39-2.66-8.51,1.19-17.05,2.27-25.6,3.13-7.91.8-15.64,1.75-22.94,5.47a71,71,0,0,1-15,5.14c-2.76.69-5.83.12-8.76.12l-.6,1.05c3,2.82,5.58,6.75,9.15,8.2a71.6,71.6,0,0,0,19.51,5c18.82,2,36.58-2.65,53.69-10.25A99.8,99.8,0,0,0,291.27,298.75ZM198.84,108.47c27.91-5.17,55.54-7.38,82.4,4.43,1.69-9.49,1.69-7.53-5.55-10.89a20.4,20.4,0,0,0-2.62-.93c-22.7-7-45.65-7.13-68.74-2.33C197.42,100.19,197.28,100.64,198.84,108.47Zm-4-1.76c1.25-3.2.17-5.14-2.91-5.61-2.44-.37-5.13-.79-7.42-.14-8.24,2.33-16.6,4.54-24.47,7.84-15.68,6.58-28,17.46-37.68,31.44-1.44,2.09-2.64,4.14,1,5.55.49-.62.93-1.11,1.3-1.64a91.81,91.81,0,0,1,36.19-31C171.5,108.15,182.23,102,194.88,106.71Zm-89,77.55c11.94,5.34,16.77,15,18.72,26.22,1.29,7.37,1.4,15,2.14,23.58,1.57-1.33,3.54-2.15,3.8-3.34,3.07-14.34.56-27.68-8.17-39.56C118.59,186.06,113.41,183.36,105.85,184.26ZM306.78,113.6c-5.09-10.82-31.09-32.87-46.7-35.86a3.49,3.49,0,0,0,1.18,1,78.85,78.85,0,0,1,22.65,22.51,6.11,6.11,0,0,0,2.39,1.91C293.32,106.76,300.38,110.34,306.78,113.6ZM260.09,295.1c-1.15-3.62-2.94-5.69-7.14-5.2-7.35.87-14.75,1.33-22.13,2-4.65.42-9.3.89-13.86,1.33.19,4.43,2.42,5.28,5.88,4.7,2.73-.45,5.52-.61,8.29-.81C240.72,296.43,250.31,295.78,260.09,295.1ZM317.77,264c-6.74,8.59-12.71,16.49-19.06,24.06a14.12,14.12,0,0,1-6.75,4.14c-8.23,2.32-16.58,4.17-25,6.24.64,2.67,1.49,3.55,4.19,2.77,7.61-2.2,15.36-3.91,23-6a9,9,0,0,0,4.55-2.8c6.1-8.14,12-16.43,17.9-24.71C317.12,266.92,317.2,265.84,317.77,264ZM286.21,104.58l-1.36.91c1.09,1.39,1.89,3.36,3.32,4.08a80.94,80.94,0,0,1,31.83,28c.29.44.53.91.85,1.33a8.18,8.18,0,0,0,.85.81C315,122.68,301.55,112.66,286.21,104.58Z"/></g></g></svg>