<svg xmlns="http://www.w3.org/2000/svg" viewBox="0 0 500 500"><defs><style>.cls-1{fill:#030712;}.cls-2{fill:none;}.cls-3{fill:#fff;}</style></defs><title>Asset 6</title><g id="Layer_2" data-name="Layer 2"><g id="Layer_1-2" data-name="Layer 1"><rect class="cls-1" width="500" height="500"/><path class="cls-2" d="M424.91,224.26a73.24,73.24,0,0,1,4.31,54.86,37.26,37.26,0,0,0,10.2-28.32A37.65,37.65,0,0,0,424.91,224.26Z"/><path class="cls-3" d="M449.42,250c-1.59-20.5-16.94-38.07-37.33-42.68a46.31,46.31,0,0,0-12-1.14c-11-25.84-29.11-49.76-50.2-66.15C313.25,111.41,271.51,107.4,250,107.6c-21.68-.2-63.32,3.81-100,32.38-21,16.44-39.17,40.41-50.16,66.2a46.61,46.61,0,0,0-12,1.14c-20.4,4.61-35.7,22.18-37.29,42.68S61.47,290.21,81,297.88A48,48,0,0,0,93.66,301c1.14,3.47,2.33,6.84,3.76,10.1,33.28,77.44,133,81.36,152.56,81.36s119.28-4,152.65-81.45c1.38-3.27,2.62-6.69,3.71-10.11A45.33,45.33,0,0,0,419,297.78C438.48,290.21,451,270.5,449.42,250ZM70.88,279.17a36.75,36.75,0,0,1,4.21-55A72.38,72.38,0,0,0,70.88,279.17Zm19.81,11.14A35.64,35.64,0,0,1,86.18,289a64.18,64.18,0,0,1-8.76-33.62,65.15,65.15,0,0,1,14.31-38.67,37.57,37.57,0,0,1,4.21-.54c-8.82,25.25-10.6,50.6-5.25,74.12Zm307.09,4.4A99.37,99.37,0,0,1,393.37,307C362.52,378.74,268.54,382.4,250,382.4S137.43,378.74,106.58,307a97.73,97.73,0,0,1-4.4-12.33h0c-7.48-25.35-5.55-53.47,5.54-81.25,10.15-25.55,27.83-49.41,48.53-65.51,33.62-26.14,71.94-30.25,92.64-30.25h1.18c20.31-.2,59.47,3.57,93.73,30.3,20.7,16.05,38.33,40,48.53,65.51,11,27.73,13,55.8,5.45,81.2Zm16-5.64a46.46,46.46,0,0,1-4.51,1.29c5.35-23.57,3.57-48.92-5.25-74.08a41,41,0,0,1,4.26.55,63.37,63.37,0,0,1,5.5,72.24Zm15.4-10a73.26,73.26,0,0,0-4.31-54.86,37.65,37.65,0,0,1,14.51,26.54,37.26,37.26,0,0,1-10.2,28.32Z"/><path class="cls-2" d="M404.06,216.23c8.82,25.21,10.6,50.56,5.25,74.08a35.64,35.64,0,0,0,4.51-1.29,63.44,63.44,0,0,0-5.5-72.29C406.89,216.53,405.45,216.33,404.06,216.23Z"/><path class="cls-3" d="M250,154.34c-11.74,0-56.8,0-88.59,34.51C129.9,223,120.5,281,148.32,321.45,177.68,364,232.6,364,250,364s72.29,0,101.65-42.58c27.87-40.4,18.37-98.48-13-132.6C306.77,154.34,261.76,154.34,250,154.34ZM180.61,282.48a14.41,14.41,0,0,1-19,5.85c-7.33-3.77-9.55-13.32-5.54-20.06a14.46,14.46,0,0,1,17.28-6.14C181.05,265.11,184.72,275.06,180.61,282.48ZM237,207.12c-5.64,10.3-19.51,4.36-31.64,16.1-11.29,11-6.83,23.56-16.73,27.92-7.78,3.37-19-.64-24.12-7.57-9.45-12.78,1.64-35.11,12.09-46.79,13.66-15.3,40-27.63,53.57-17.14C237.79,185.59,241.51,198.86,237,207.12Z"/><path class="cls-2" d="M343.76,148c-34.27-26.73-73.48-30.5-93.73-30.3h-1.19c-20.7,0-59,4.11-92.64,30.26-20.65,16.09-38.33,40-48.53,65.5-11.09,27.78-13,55.9-5.54,81.26h0a106.78,106.78,0,0,0,4.4,12.32C137.43,378.74,231.46,382.4,250,382.4S362.52,378.79,393.42,307a106.26,106.26,0,0,0,4.4-12.33c7.53-25.4,5.6-53.47-5.49-81.3C382.13,187.86,364.45,164,343.76,148Zm7.87,173.5C322.27,364,267.4,364,250,364s-72.3,0-101.66-42.58C120.5,281.05,130,223,161.39,188.85c31.79-34.51,76.85-34.51,88.59-34.51s56.79,0,88.63,34.51c31.44,34.17,40.89,92.2,13,132.6Z"/><path class="cls-2" d="M230.17,179.64c-13.57-10.49-39.91,1.84-53.57,17.14-10.45,11.68-21.59,34-12.09,46.79,5.15,6.93,16.34,10.94,24.12,7.57,9.9-4.36,5.44-16.93,16.73-27.92,12.13-11.79,26-5.85,31.64-16.1C241.51,198.86,237.79,185.59,230.17,179.64Z"/><path class="cls-2" d="M173.33,262.13a14.4,14.4,0,0,0-17.28,6.14c-4,6.74-1.74,16.29,5.54,20.06a14.46,14.46,0,0,0,19-5.85C184.72,275.06,181.05,265.11,173.33,262.13Z"/><path class="cls-2" d="M77.42,255.45a64.65,64.65,0,0,0,8.76,33.62,46.46,46.46,0,0,0,4.51,1.29c-5.35-23.57-3.57-48.92,5.2-74.08a38.42,38.42,0,0,0-4.21.55C86.83,222.87,77.81,236.59,77.42,255.45Z"/><path class="cls-2" d="M60.58,250.75a37.17,37.17,0,0,0,10.3,28.42,72.46,72.46,0,0,1,4.21-54.91A37.32,37.32,0,0,0,60.58,250.75Z"/></g></g></svg>