<svg xmlns="http://www.w3.org/2000/svg" viewBox="0 0 500 500"><defs><style>.cls-1{fill:#030712;}.cls-2{fill:none;}.cls-3{fill:#fff;}</style></defs><title>Asset 1</title><g id="Layer_2" data-name="Layer 2"><g id="Layer_1-2" data-name="Layer 1"><rect class="cls-1" width="500" height="500"/><path class="cls-2" d="M397.21,228.33a61.67,61.67,0,0,1,3.62,46.18,31.36,31.36,0,0,0,8.59-23.84A31.75,31.75,0,0,0,397.21,228.33Z"/><path class="cls-3" d="M417.83,250c-1.33-17.25-14.25-32-31.42-35.92a39.07,39.07,0,0,0-10.08-1c-9.25-21.75-24.5-41.88-42.26-55.67-30.83-24.09-66-27.46-84-27.3-18.25-.16-53.3,3.21-84.18,27.26-17.71,13.83-33,34-42.21,55.71a39.41,39.41,0,0,0-10.08,1A40.47,40.47,0,0,0,82.17,250c-1.34,17.26,9.16,33.84,25.58,40.3a40.68,40.68,0,0,0,10.67,2.58c1,2.92,2,5.75,3.17,8.5,28,65.18,111.89,68.47,128.39,68.47s100.39-3.33,128.47-68.55c1.17-2.75,2.21-5.62,3.13-8.5a38.54,38.54,0,0,0,10.63-2.58C408.62,283.84,419.17,267.26,417.83,250ZM99.25,274.55a30.93,30.93,0,0,1,3.54-46.26A60.89,60.89,0,0,0,99.25,274.55Zm16.67,9.37a29.71,29.71,0,0,1-3.79-1.08,54,54,0,0,1-7.38-28.29,54.83,54.83,0,0,1,12-32.55,32.65,32.65,0,0,1,3.54-.46c-7.42,21.25-8.92,42.59-4.42,62.38Zm258.45,3.71A83.26,83.26,0,0,1,370.66,298c-26,60.34-105,63.42-120.68,63.42S155.26,358.35,129.3,298a83.26,83.26,0,0,1-3.71-10.38h0c-6.29-21.33-4.67-45,4.67-68.38,8.54-21.5,23.42-41.59,40.83-55.13,28.3-22,60.55-25.46,78-25.46h1c17.09-.17,50.05,3,78.89,25.5,17.42,13.5,32.25,33.63,40.84,55.13,9.29,23.34,10.91,47,4.58,68.34Zm13.46-4.75c-1.25.42-2.5.79-3.79,1.09,4.5-19.84,3-41.18-4.42-62.35,1.21.09,2.38.25,3.58.46a53.3,53.3,0,0,1,4.63,60.8Zm13-8.42a61.71,61.71,0,0,0-3.62-46.17,31.7,31.7,0,0,1,12.2,22.34,31.31,31.31,0,0,1-8.58,23.83Z"/><path class="cls-2" d="M379.66,221.58c7.42,21.21,8.92,42.55,4.42,62.34a29.71,29.71,0,0,0,3.79-1.08A53.38,53.38,0,0,0,383.25,222C382,221.83,380.83,221.67,379.66,221.58Z"/><path class="cls-3" d="M250,169.49c-9.88,0-47.8,0-74.55,29-26.51,28.71-34.42,77.55-11,111.6C189.14,346,235.35,346,250,346s60.84,0,85.55-35.83c23.46-34,15.46-82.89-11-111.6C297.78,169.49,259.9,169.49,250,169.49ZM191.6,277.34a12.12,12.12,0,0,1-16,4.92c-6.17-3.17-8-11.21-4.67-16.88a12.15,12.15,0,0,1,14.54-5.17C192,262.71,195.06,271.09,191.6,277.34ZM239,213.91c-4.75,8.67-16.42,3.67-26.63,13.55-9.5,9.25-5.75,19.83-14.08,23.5-6.55,2.83-16-.54-20.3-6.37-8-10.76,1.38-29.55,10.17-39.38,11.5-12.88,33.67-23.26,45.09-14.42C239.73,195.79,242.85,207,239,213.91Z"/><path class="cls-2" d="M328.91,164.12c-28.84-22.51-61.85-25.67-78.89-25.51h-1c-17.42,0-49.67,3.46-78,25.47-17.37,13.54-32.25,33.62-40.84,55.13-9.33,23.38-10.91,47-4.66,68.38h0A90.22,90.22,0,0,0,129.26,298c26,60.38,105.13,63.46,120.72,63.46s94.72-3,120.72-63.42a90.22,90.22,0,0,0,3.71-10.38c6.34-21.38,4.71-45-4.62-68.42C361.2,197.7,346.33,177.62,328.91,164.12Zm6.62,146C310.82,346,264.65,346,250,346s-60.84,0-85.55-35.83c-23.42-34-15.46-82.89,11-111.6,26.75-29,64.67-29,74.55-29s47.8,0,74.59,29c26.46,28.75,34.42,77.59,11,111.6Z"/><path class="cls-2" d="M233.31,190.79c-11.42-8.84-33.59,1.54-45.09,14.42-8.79,9.83-18.17,28.62-10.17,39.38,4.34,5.83,13.76,9.2,20.3,6.37,8.33-3.67,4.58-14.25,14.08-23.5,10.21-9.92,21.88-4.92,26.63-13.55C242.85,207,239.73,195.79,233.31,190.79Z"/><path class="cls-2" d="M185.47,260.21a12.11,12.11,0,0,0-14.54,5.17c-3.38,5.67-1.46,13.71,4.66,16.88a12.17,12.17,0,0,0,16-4.92A12.32,12.32,0,0,0,185.47,260.21Z"/><path class="cls-2" d="M104.75,254.59a54.47,54.47,0,0,0,7.38,28.29c1.25.42,2.5.79,3.79,1.09-4.5-19.84-3-41.18,4.38-62.35a34.43,34.43,0,0,0-3.55.46A54.69,54.69,0,0,0,104.75,254.59Z"/><path class="cls-2" d="M90.58,250.63a31.31,31.31,0,0,0,8.67,23.92,61,61,0,0,1,3.54-46.22A31.46,31.46,0,0,0,90.58,250.63Z"/></g></g></svg>