<svg xmlns="http://www.w3.org/2000/svg" viewBox="0 0 943 943"><defs><style>.cls-1{fill:none;stroke:#fff;stroke-miterlimit:10;stroke-width:3px;}</style></defs><title>Asset 5</title><g id="Layer_2" data-name="Layer 2"><g id="Layer_1-2" data-name="Layer 1"><path class="cls-1" d="M756.37,539.17a10.7,10.7,0,0,0-.9,6.44,31.29,31.29,0,0,1-1.13,12.95c-1.44,5-5,7.91-9.32,10.08a20.92,20.92,0,0,1-9,2.33,4.63,4.63,0,0,0-2.47.65c-5,3.53-10.83,4.31-16.67,4.75a38.28,38.28,0,0,1-14.8-1.46,23.36,23.36,0,0,1-6.66-3.23,4.09,4.09,0,0,0-3.13-.85q-2.58.42-5.15.88l-5.84,1.11c-.55,3.07-1.09,6-1.6,8.92a26.79,26.79,0,0,1-3.51,9c-2.26,3.83-5.92,5.93-10.07,7.2a155.42,155.42,0,0,1-22.62,4.86c-3.69.54-7.35,1.34-11,1.84-4.32.58-8.67,1-13,1.42-3.1.28-6.19.46-9.27,1-3.92.73-7.93.88-11.9,1.29-.86.09-1.72.21-2.73.33a12.24,12.24,0,0,0-.5,2.12c-.19,3.11-.22,6.23-.45,9.34-.47,6.21-.84,12.44-1.62,18.62-.73,5.8-1.82,11.57-3,17.3-1.06,5.25-2.4,10.43-3.63,15.63a11.3,11.3,0,0,0-.1,5.57c1.24,4.81,2.49,9.63,3.88,14.4,1.67,5.74,3.47,11.44,5.22,17.14,1.92,6.3,3.87,12.58,5.78,18.88.9,3,1.88,5.94,2.51,9a10.38,10.38,0,0,0,2.26,4.22c2.24,3,4.57,5.9,6.77,8.91a21.45,21.45,0,0,1,3.34,7c1.91,6.82,4.12,13.56,6.05,20.37,1.07,3.83,1.81,7.75,2.74,11.63.41,1.69.92,3.35,1.41,5.13,5.22,2.79,9.24,7,13.35,11.15a15.69,15.69,0,0,1,3.65,5.59,80.36,80.36,0,0,1,3.86,13.64c.39,2,.41,4.23,1.91,5.95a3,3,0,0,1,.38,1.43c.29,1.84.6,3.69.86,5.54a7.86,7.86,0,0,1-4,8.53,67.34,67.34,0,0,1-12.88,5.86c-3.89,1.3-7.85,2.37-11.8,3.46-1.44.39-3,.5-4.42.79a95.94,95.94,0,0,1-21.92,1.84,91.85,91.85,0,0,1-11.82-1.79c-7-1.22-13.66-3.66-20.31-6.11s-13.6-4.82-20.39-7.23a90.86,90.86,0,0,0-9.11-3.26c-2.81-.66-5.47-1.69-8.19-2.54a9.28,9.28,0,0,1-2.61-1.4,5.11,5.11,0,0,1-2.09-3.42,29.25,29.25,0,0,1-.35-8.56c.23-1.62.4-3.22,1.77-4.38a2.83,2.83,0,0,0,.66-2.79c-.27-2.23-.53-4.46-1-6.65-.69-3.16-1.59-6.27-2.34-9.41q-1.73-7.26-3.38-14.55c-.88-3.88-1.7-7.78-2.62-11.65a7.63,7.63,0,0,0-2.32-4.16,17.06,17.06,0,0,1-4.89-8.2c-.79-2.76-1.38-5.56-2.14-8.31-1.13-4.08-2.26-8.15-3.53-12.19-1-3.19-2.2-6.31-3.29-9.43-1.64-.72-3.1-.29-4.55,0a63.11,63.11,0,0,1-23.05-.07c-2.31-.44-4.62-.81-7-1.23a6.87,6.87,0,0,0-1.57,3.32q-3.56,13-7.18,25.89c-.61,2.16-1.45,4.24-2.06,6.39a7.76,7.76,0,0,1-2.41,3.71,4.75,4.75,0,0,0-1.42,2.51q-4.49,16-9.06,32c-1.28,4.55-2.48,9.12-3.89,13.63a13,13,0,0,0-.68,4.39,22.59,22.59,0,0,1-2.9,11.07,11.77,11.77,0,0,1-3.59,3.71,45.54,45.54,0,0,1-12.55,6.5c-5.95,2.17-12,4.09-18,6.12-5.41,1.82-10.78,3.79-16.24,5.44-3.8,1.15-7.72,2-11.61,2.76-2.68.55-5.41.88-8.12,1.24-7.87,1-15.65.27-23.45-.89-4.57-.68-9.07-1.66-13.53-2.78a85.33,85.33,0,0,1-19.86-7.4c-6-3.24-7.44-7.18-4.91-13.67a4.54,4.54,0,0,1,1.69-2.37,4.44,4.44,0,0,0,1.82-3.48q.94-6.27,2.18-12.5a31.41,31.41,0,0,1,1.59-5.36,9.94,9.94,0,0,1,3.48-4.73,66.54,66.54,0,0,1,10.93-6.41,11.3,11.3,0,0,1,2.36-1.07c2.35-.45,3.12-2.13,3.67-4.16,1.23-4.56,2.44-9.14,3.89-13.64,1.66-5.21,3.56-10.34,5.35-15.51.53-1.53,1.13-3,1.6-4.58a13.55,13.55,0,0,1,7.18-8.61c.66-.32,1.31-.7,2-1.09,2-6,3.67-12.13,5.06-18.32,1-4.49,2.24-8.93,3.32-13.39,1.17-4.84,2.29-9.69,3.43-14.53a6.7,6.7,0,0,1,.37-1.45c1.43-2.87,1-5.79.43-8.77-.57-2.81-1-5.65-1.31-8.5-.6-5.07-1.34-10.14-1.55-15.23-.29-7.09-.13-14.21-.2-21.31,0-1.34.3-2.71-.26-4.25a38.85,38.85,0,0,0-4,1.15,32.73,32.73,0,0,1-9.42,2.14c-1.73.18-3.45.48-5.17.77-3.64.63-7.24.63-10.59-1.08a7.09,7.09,0,0,0-5.08-.48,86.71,86.71,0,0,1-25.63,2c-9.67-.68-18.91-3-26.7-9.3a33.63,33.63,0,0,1-12.74-22.83,50.09,50.09,0,0,1,.9-16.7c3.14-15.19,10.24-28.48,19.64-40.62a139,139,0,0,1,34.49-31.6,83.09,83.09,0,0,1,18-8.92c.46-.16.89-.38,1.56-.68a8,8,0,0,0-.76-2,42.77,42.77,0,0,1-4-6.7c-1.52-3.07-2-6.39-2.59-9.69a4.66,4.66,0,0,1,0-1.49c.67-5.2,1.47-10.37,4.56-14.83.28-.41.48-.85.69-1.23-.35-1.61-1.71-2.2-2.67-3.12-3-2.83-6.12-5.49-9-8.44-4.16-4.3-8-8.86-10.69-14.29a85.84,85.84,0,0,1-5.27-14.34c-1.11-3.95-2.3-7.89-3.19-11.89A25.75,25.75,0,0,1,300.48,414c.42-.91.85-1.81,1.24-2.64-2.51-7.78-5.08-15.43-6.76-23.36-1.51-7.08-2.75-14.16-3.68-21.34A174.36,174.36,0,0,1,290,343.16a184.71,184.71,0,0,1,1.27-21.63c.75-6.07,1.82-12.07,2.87-18.08.67-3.9,1.88-7.72,2.94-11.55.83-3,1.81-5.95,2.69-8.93a151.43,151.43,0,0,1,8.18-20.82,187.89,187.89,0,0,1,15.19-27,206.86,206.86,0,0,1,20.56-25.56A196.33,196.33,0,0,1,392,172.53a187.57,187.57,0,0,1,29.34-12.85,172.27,172.27,0,0,1,21.19-6c5.6-1.16,11.22-2.25,16.95-2.87,4.71-.51,9.4-1.13,14.13-1.31,1.5-.05,3-.22,4.48-.22,7.72,0,15.46-.2,23.18.5,2.23.2,4.45.49,6.67.78,3.58.49,7.17.92,10.73,1.52a185,185,0,0,1,31.72,8.36,192.27,192.27,0,0,1,21.91,9.35,196.14,196.14,0,0,1,25.82,15.66,191.4,191.4,0,0,1,16.61,13.29,195.68,195.68,0,0,1,52.56,76.79c2.19,5.81,4,11.75,5.68,17.76,1.17,4.2,1.8,8.51,3,12.69a45.17,45.17,0,0,1,1.2,7c.58,4.7,1.14,9.41,1.6,14.12a151.36,151.36,0,0,1,.85,20.53c-.12,3.36-.36,6.71-.57,10.07-.05.87-.2,1.74-.22,2.61A102.7,102.7,0,0,1,676.79,377c-.91,4.78-1.7,9.57-2.81,14.29-.86,3.62-2.25,7.11-3.19,10.7A106.73,106.73,0,0,1,666,415.73c-1.71,4.14-3.54,8.22-5.32,12.32-.4.92-.88,1.79-1.25,2.72-.17.44-.38,1.09-.2,1.42,1.35,2.26.4,4.64.46,6.95a23.16,23.16,0,0,1-.24,3c-.55,6.08-1,7.63-4.35,12.45-5,7.13-9.89,14.33-15.41,21.08-5,6.08-10.17,11.94-16.38,16.82a19.86,19.86,0,0,0-1.68,1.49,4.31,4.31,0,0,0-.49.79c.43,2.27,1.75,4.5,1.64,7.06-.11,2.32,0,4.66,0,6.92,1.27.72,2.36.28,3.43.11,1.85-.31,3.67-.71,5.52-1q10.13-1.72,20.26-3.42c4-.67,8.1-1.39,12.18-1.9a21.4,21.4,0,0,1,11.35,1.5,13.82,13.82,0,0,1,5.31,4,22.11,22.11,0,0,0,1.94,1.92C686,502.84,692,499,698.29,495.67a21.39,21.39,0,0,1,14.42-2.42c1.93.36,3.73-.29,5.51-.77a57,57,0,0,1,19.61-2c4.68.36,9.09,1.73,12.22,5.56a18.93,18.93,0,0,1,3.19,5c1.73,4.45,2.76,9.08,1.57,13.89a6.83,6.83,0,0,0,.51,4.66,37.9,37.9,0,0,1,2.61,12.74A13.47,13.47,0,0,1,756.37,539.17Z"/><circle class="cls-1" cx="471.5" cy="471.5" r="470"/></g></g></svg>