<?xml version="1.0" standalone="no"?>
<!DOCTYPE svg PUBLIC "-//W3C//DTD SVG 20010904//EN"
 "http://www.w3.org/TR/2001/REC-SVG-20010904/DTD/svg10.dtd">
<svg version="1.0" xmlns="http://www.w3.org/2000/svg"
 width="700.000000pt" height="700.000000pt" viewBox="0 0 700.000000 700.000000"
 preserveAspectRatio="xMidYMid meet">
<metadata>
Created by potrace 1.14, written by Peter Selinger 2001-2017
</metadata>
<g transform="translate(0.000000,700.000000) scale(0.100000,-0.100000)"
fill="#000000" stroke="none">
<path d="M0 3500 l0 -3500 3500 0 3500 0 0 3500 0 3500 -3500 0 -3500 0 0
-3500z m3915 1961 c302 -54 562 -149 794 -290 347 -213 653 -559 845 -957 l49
-101 81 -5 c93 -6 199 -40 284 -90 76 -45 189 -159 235 -238 64 -110 82 -185
82 -335 -1 -115 -4 -139 -27 -203 -84 -232 -273 -397 -512 -445 l-58 -12 -28
-77 c-16 -43 -51 -121 -80 -175 -277 -530 -840 -872 -1635 -993 -202 -31 -548
-38 -755 -16 -384 42 -680 123 -975 266 -430 209 -726 520 -878 925 l-27 70
-68 13 c-39 7 -107 32 -162 59 -160 79 -289 229 -343 398 -18 58 -22 92 -21
205 0 120 3 142 26 202 96 253 322 429 573 446 l80 5 62 126 c200 404 520 753
882 960 204 117 444 204 688 251 180 34 247 39 513 36 207 -3 278 -8 375 -25z"/>
<path d="M3225 5338 c-730 -82 -1316 -500 -1646 -1173 -155 -317 -218 -597
-206 -914 25 -628 381 -1117 1008 -1384 498 -212 1133 -272 1702 -161 763 149
1274 537 1468 1115 89 266 102 576 37 878 -68 321 -253 680 -493 958 -173 202
-361 349 -600 468 -231 115 -429 175 -698 210 -130 17 -438 19 -572 3z m490
-508 c414 -39 750 -192 1004 -455 198 -206 337 -474 402 -773 29 -138 37 -412
16 -547 -56 -351 -228 -646 -493 -842 -89 -65 -239 -146 -349 -188 -100 -38
-290 -83 -430 -102 -165 -22 -565 -22 -730 0 -623 85 -1030 380 -1210 877 -51
142 -66 232 -72 430 -5 159 -2 202 16 307 68 402 280 764 580 988 319 240 779
351 1266 305z"/>
<path d="M2914 4521 c-191 -52 -400 -202 -511 -366 -166 -246 -194 -473 -73
-593 82 -83 225 -116 314 -73 52 26 75 58 106 156 34 105 73 175 127 227 61
59 124 91 238 119 179 44 225 91 225 228 0 126 -65 243 -164 293 -58 29 -172
33 -262 9z"/>
<path d="M2280 3324 c-103 -45 -149 -165 -101 -269 85 -188 371 -122 371 85 0
79 -55 164 -123 189 -40 15 -106 13 -147 -5z"/>
<path d="M1243 3908 c-170 -252 -203 -556 -92 -838 18 -44 42 -91 55 -105 27
-30 68 -35 60 -7 -37 122 -43 505 -12 677 16 87 62 268 81 318 6 14 2 17 -22
17 -23 0 -35 -10 -70 -62z"/>
<path d="M5665 3949 c47 -148 79 -292 96 -439 18 -157 6 -413 -26 -547 -4 -18
-1 -23 15 -23 32 0 64 42 99 132 95 240 83 511 -33 735 -58 112 -99 163 -132
163 -21 0 -24 -3 -19 -21z"/>
<path d="M984 3797 c-168 -183 -181 -452 -33 -657 17 -23 32 -40 34 -38 3 2
-2 25 -10 50 -7 26 -19 92 -26 147 -19 155 5 323 70 490 11 30 19 56 17 58 -2
2 -25 -20 -52 -50z"/>
<path d="M5960 3849 c0 -4 11 -36 24 -71 77 -203 92 -428 42 -618 -8 -30 -13
-57 -11 -59 8 -7 85 123 106 178 26 70 36 197 20 274 -17 80 -74 188 -131 250
-27 28 -49 49 -50 46z"/>
</g>
</svg>
