<?xml version="1.0" standalone="no"?>
<!DOCTYPE svg PUBLIC "-//W3C//DTD SVG 20010904//EN"
 "http://www.w3.org/TR/2001/REC-SVG-20010904/DTD/svg10.dtd">
<svg version="1.0" xmlns="http://www.w3.org/2000/svg"
 width="700.000000pt" height="700.000000pt" viewBox="0 0 700.000000 700.000000"
 preserveAspectRatio="xMidYMid meet">
<metadata>
Created by potrace 1.14, written by Peter Selinger 2001-2017
</metadata>
<g transform="translate(0.000000,700.000000) scale(0.100000,-0.100000)"
fill="#000000" stroke="none">
<path d="M0 3500 l0 -3500 3500 0 3500 0 0 3500 0 3500 -3500 0 -3500 0 0
-3500z m3695 1670 c140 -14 327 -51 446 -90 122 -40 353 -154 451 -222 257
-179 467 -423 622 -726 l55 -109 79 -11 c99 -14 175 -42 252 -93 151 -102 250
-281 250 -456 0 -259 -186 -492 -438 -549 l-70 -16 -22 -61 c-69 -191 -213
-397 -376 -539 -307 -267 -748 -428 -1290 -469 -301 -23 -672 26 -995 131
-141 47 -399 178 -504 257 -220 165 -391 389 -475 619 l-22 62 -59 11 c-93 19
-210 83 -282 155 -212 212 -222 539 -24 762 93 103 212 165 359 186 l80 11 53
107 c268 535 725 890 1292 1005 208 43 411 54 618 35z"/>
<path d="M3295 5049 c-308 -32 -614 -143 -845 -307 -113 -80 -282 -245 -368
-359 -166 -220 -277 -453 -339 -713 -35 -146 -43 -393 -18 -541 44 -267 162
-498 349 -684 257 -257 631 -418 1126 -486 123 -17 477 -17 600 0 590 81 1015
299 1262 646 103 144 181 334 213 519 19 111 20 333 1 447 -73 451 -358 910
-726 1171 -340 241 -802 354 -1255 307z m373 -429 c347 -31 625 -152 837 -365
234 -233 368 -546 382 -890 25 -595 -324 -1036 -918 -1163 -170 -37 -274 -44
-525 -39 -253 4 -351 17 -514 64 -455 131 -750 467 -811 920 -14 108 -7 331
14 428 90 412 323 727 662 899 248 125 547 175 873 146z"/>
<path d="M2980 4351 c-200 -65 -374 -217 -465 -406 -64 -134 -79 -220 -54
-306 28 -92 128 -162 234 -163 105 -1 136 29 184 177 54 161 127 218 359 277
121 31 164 157 102 297 -45 102 -112 143 -230 142 -44 0 -98 -7 -130 -18z"/>
<path d="M2475 3352 c-101 -47 -133 -155 -75 -250 23 -37 88 -72 135 -72 45 0
109 34 135 71 35 48 38 131 8 183 -42 73 -130 102 -203 68z"/>
<path d="M1641 3887 c-28 -14 -92 -118 -122 -196 -50 -134 -63 -300 -33 -434
22 -98 76 -213 104 -222 30 -9 32 -4 20 46 -6 24 -14 121 -17 214 -7 216 10
334 84 588 6 20 -3 21 -36 4z"/>
<path d="M5324 3876 c70 -246 90 -384 83 -581 -3 -82 -10 -174 -17 -203 -13
-60 -11 -67 20 -57 14 4 32 29 51 68 110 235 88 514 -56 731 -24 36 -44 55
-61 59 -22 4 -25 2 -20 -17z"/>
<path d="M1390 3759 c-139 -149 -159 -369 -50 -539 18 -28 35 -49 37 -46 2 2
-3 38 -11 80 -31 147 -15 335 39 471 14 32 22 61 20 63 -2 2 -18 -11 -35 -29z"/>
<path d="M5575 3775 c4 -11 16 -40 25 -65 49 -123 63 -310 35 -456 -8 -43 -13
-79 -11 -81 8 -9 70 103 88 160 15 48 19 82 16 149 -4 75 -9 96 -40 160 -33
66 -133 184 -113 133z"/>
</g>
</svg>
