<svg xmlns="http://www.w3.org/2000/svg" viewBox="0 0 939.52 939.52"><defs><style>.cls-1,.cls-2,.cls-3{fill:none;stroke:#fff;stroke-miterlimit:10;}.cls-1{stroke-width:2px;}.cls-2{opacity:0.5;}.cls-3{stroke-width:0.5px;opacity:0.4;}</style></defs><title>Asset 1</title><g id="Layer_2" data-name="Layer 2"><g id="Layer_1-2" data-name="Layer 1"><path class="cls-1" d="M279.17,225.41h0c14-92.65,94-163.65,190.58-163.65s176.56,71,190.59,163.67"/><path class="cls-1" d="M288.65,320.7a193.11,193.11,0,0,0,55.14,79.74"/><path class="cls-1" d="M595.69,400.46a193,193,0,0,0,55.18-79.77"/><path class="cls-1" d="M279.18,225.4,259.47,232v81.34l29.18,7.36"/><line class="cls-1" x1="269.13" y1="228.76" x2="269.13" y2="228.76"/><path class="cls-1" d="M347.13,578.91c0,23.52-42.06,56.66-56.08,75.55,0,0,0,.07-.05.08s-.1-.06-.14-.08c-22-11.67-82.64-22.37-88.14-46.7-12-53.17,130-175.12,130-175.12l11.12-32.21"/><path class="cls-1" d="M348.14,581.73c0,22.29-11.71,65.85-14.43,88-5.08,41.33-41.85,135.38-13.64,166,19.1,20.73,92.42,19.53,112.74,0C448.1,821,420.91,765.65,436.2,751c6.76-6.49,29.32-4.26,38.7-4.44"/><path class="cls-1" d="M660.3,225.4,680,232v81.35l-29.19,7.36"/><path class="cls-1" d="M592.35,578.91c0,23.52,42,56.66,56.07,75.55,0,0,0,.07.06.08s.1-.06.14-.08c22-11.67,82.63-22.38,88.14-46.7,12-53.17-130-175.12-130-175.12l-11.11-32.21"/><path class="cls-1" d="M592.35,578.91c0,22.28,11.71,65.84,14.43,88,5.08,41.33,41.85,135.38,13.64,166-19.1,20.73-92.42,19.53-112.74,0-15.29-14.69,11.9-70.06-3.39-84.75-6.76-6.49-18.91-2-29.39-1.61"/><line class="cls-2" x1="469.76" x2="469.76" y2="939.52"/><line class="cls-3" x1="400.22" y1="0.07" x2="384.2" y2="939.45"/><line class="cls-3" x1="544.53" x2="544.53" y2="939.52"/><line class="cls-3" x1="631.29" y1="0.07" x2="615.27" y2="939.45"/><line class="cls-3" x1="316.22" x2="316.22" y2="939.52"/><line class="cls-2" x1="939.52" y1="493.45" y2="493.45"/><line class="cls-3" x1="939.52" y1="415.9" y2="415.9"/><line class="cls-3" x1="939.47" y1="561.45" x2="0.05" y2="575"/><line class="cls-3" x1="939.47" y1="640.2" x2="0.05" y2="653.74"/><line class="cls-3" x1="939.36" y1="327.43" x2="0.17" y2="352.39"/></g></g></svg>