<?xml version="1.0" encoding="utf-8"?>
<!-- Generator: Adobe Illustrator 24.0.2, SVG Export Plug-In . SVG Version: 6.00 Build 0)  -->
<svg version="1.1" id="Layer_1" xmlns="http://www.w3.org/2000/svg" xmlns:xlink="http://www.w3.org/1999/xlink" x="0px" y="0px"
	 viewBox="0 0 806 575.2" style="enable-background:new 0 0 806 575.2;" xml:space="preserve">
<style type="text/css">
	.st0{fill:none;}
	.st1{fill:#FFFFFF;}
</style>
<g>
	<path class="st0" d="M756.3,235.6c17.2,34.4,20.3,74.1,8.7,110.8c14.6-15.3,22.1-36.1,20.6-57.2
		C783.9,267.8,772.8,248.5,756.3,235.6z"/>
	<path class="st1" d="M805.8,287.6c-3.2-41.4-34.2-76.9-75.4-86.2c-7.9-1.8-16-2.6-24.2-2.3C684,146.9,647.4,98.6,604.8,65.5
		C530.8,7.7,446.5-0.4,403.1,0c-43.8-0.4-127.9,7.7-202,65.4C158.6,98.6,122,147,99.8,199.1c-8.1-0.3-16.2,0.5-24.2,2.3
		c-41.2,9.3-72.1,44.8-75.3,86.2s22,81.2,61.4,96.7c8.2,3.2,16.8,5.3,25.6,6.2c2.3,7,4.7,13.8,7.6,20.4
		C162.1,567.3,363.4,575.2,403,575.2s240.9-8,308.3-164.5c2.8-6.6,5.3-13.5,7.5-20.4c8.8-0.9,17.4-2.9,25.5-6.2
		C783.7,368.8,809,329,805.8,287.6z M41.3,346.5c-14.4-15.2-22.5-36-20.8-57.4s12.7-40.6,29.3-53.6C32.4,270,29.4,309.8,41.3,346.5z
		 M81.3,369c-3.1-0.7-6.1-1.5-9.1-2.6c-12-20.6-18.2-44.1-17.7-67.9c0.9-38.1,19-65.8,28.9-78.1c2.8-0.5,5.7-0.9,8.5-1.1
		C74.1,270.3,70.5,321.5,81.3,369L81.3,369z M701.5,377.9c-2.4,8.5-5.4,16.8-8.9,24.9C630.3,547.6,440.5,555,403,555
		s-227.3-7.4-289.6-152.2c-3.5-8.1-6.5-16.4-8.9-24.9l0,0c-15.1-51.2-11.2-108,11.2-164.1c20.5-51.6,56.2-99.8,98-132.3
		C281.6,28.7,359,20.4,400.8,20.4h2.4c41-0.4,120.1,7.2,189.3,61.2c41.8,32.4,77.4,80.7,98,132.3
		C712.8,269.9,716.7,326.6,701.5,377.9L701.5,377.9z M733.8,366.5c-3,1-6,1.9-9.1,2.6c10.8-47.6,7.2-98.8-10.6-149.6
		c2.9,0.2,5.7,0.6,8.6,1.1c11.3,14,28,40.9,28.8,78.1C752,322.4,745.9,345.9,733.8,366.5L733.8,366.5z M764.9,346.3
		c11.6-36.6,8.5-76.4-8.7-110.8c16.5,12.9,27.6,32.2,29.3,53.6C787,310.2,779.5,331,764.9,346.3L764.9,346.3z"/>
	<path class="st0" d="M714.2,219.4c17.8,50.9,21.4,102.1,10.6,149.6c3.1-0.7,6.1-1.5,9.1-2.6c12-20.6,18.1-44,17.7-67.9
		c-0.8-37.1-17.5-64.1-28.8-78.1C719.9,220,717,219.6,714.2,219.4z"/>
	<path class="st1" d="M403,94.4c-23.7,0-114.7,0-178.9,69.7c-63.6,68.9-82.6,186.1-26.4,267.8c59.3,86,170.2,86,205.3,86
		s146,0,205.3-86c56.3-81.6,37.1-198.9-26.3-267.8C517.7,94.4,426.8,94.4,403,94.4z M262.9,353.2c-7.2,13.1-24.5,19-38.3,11.8
		c-14.8-7.6-19.3-26.9-11.2-40.5c6.9-11.8,22.2-17.3,34.9-12.4C263.8,318.1,271.2,338.2,262.9,353.2z M376.7,201
		c-11.4,20.8-39.4,8.8-63.9,32.5C290,255.7,299,281.1,279,289.9c-15.7,6.8-38.3-1.3-48.7-15.3c-19.1-25.8,3.3-70.9,24.4-94.5
		c27.6-30.9,80.8-55.8,108.2-34.6C378.4,157.5,385.9,184.3,376.7,201z"/>
	<path class="st0" d="M592.4,81.5c-69.2-54-148.4-61.6-189.3-61.2h-2.4c-41.8,0-119.2,8.3-187.1,61.1c-41.7,32.5-77.4,80.7-98,132.3
		c-22.4,56.1-26.2,112.9-11.2,164.1l0,0c2.5,8.5,5.4,16.8,8.9,24.9C175.7,547.6,365.6,555,403,555s227.3-7.3,289.7-152.2
		c3.5-8.1,6.4-16.4,8.9-24.9c15.2-51.3,11.3-108-11.1-164.2C669.9,162.1,634.2,113.9,592.4,81.5z M608.3,431.9
		c-59.3,86-170.1,86-205.3,86s-146,0-205.3-86c-56.2-81.6-37.1-198.9,26.4-267.8C288.3,94.4,379.3,94.4,403,94.4s114.7,0,179,69.7
		C645.5,233.1,664.6,350.3,608.3,431.9L608.3,431.9z"/>
	<path class="st0" d="M363,145.5c-27.4-21.2-80.6,3.7-108.2,34.6c-21.1,23.6-43.6,68.7-24.4,94.5c10.4,14,33,22.1,48.7,15.3
		c20-8.8,11-34.2,33.8-56.4c24.5-23.8,52.5-11.8,63.9-32.5C385.9,184.3,378.4,157.5,363,145.5z"/>
	<path class="st0" d="M248.2,312.1c-12.7-5-28,0.6-34.9,12.4c-8.1,13.6-3.5,32.9,11.2,40.5c13.8,7.1,31.1,1.3,38.3-11.8
		C271.2,338.2,263.8,318.1,248.2,312.1z"/>
	<path class="st0" d="M54.5,298.6c-0.4,23.8,5.7,47.3,17.7,67.9c3,1,6,1.9,9.1,2.6c-10.8-47.6-7.2-98.8,10.5-149.6
		c-2.9,0.2-5.7,0.6-8.5,1.1C73.5,232.8,55.3,260.5,54.5,298.6z"/>
	<path class="st0" d="M20.5,289.1c-1.7,21.4,6.3,42.1,20.8,57.4c-11.9-36.7-8.8-76.5,8.5-110.9C33.2,248.5,22.1,267.8,20.5,289.1z"
		/>
</g>
</svg>
