<svg xmlns="http://www.w3.org/2000/svg" viewBox="0 0 393 393"><defs><style>.cls-1,.cls-2{fill:none;}.cls-1{stroke:#000;stroke-miterlimit:10;stroke-width:7px;}.cls-2{opacity:0;}</style></defs><title>Asset 16</title><g id="Layer_2" data-name="Layer 2"><g id="Layer_1-2" data-name="Layer 1"><path class="cls-1" d="M213,245.66H189.1c-.92,3.26-1.95,7.36-3.23,11.39-4.38,13.79-8.91,27.53-13.23,41.33a75.35,75.35,0,0,0-1.89,9.48c-.68,3.87-2,7.56-5.78,9.16-17.7,7.45-35.32,16-55.26,13.45-8.37-1.07-16.62-3.91-24.63-6.77-6-2.13-6.41-6.09-2.86-11.41a12.78,12.78,0,0,0,1.56-6.24c.38-7.93,4.77-12.62,11.87-15.13,2.36-.84,3.32-2.3,4-4.63,2.24-7.45,4.75-14.83,7.3-22.19.44-1.28,1.3-2.87,2.4-3.39,3.55-1.68,4.32-4.82,5.12-8.12,2.19-9,4.57-17.86,6.57-26.86.49-2.17-.15-4.6-.33-6.9-.76-10.22-1.55-20.43-2.31-30.41-3.5.66-7.55,1.43-11.61,2.17a5.44,5.44,0,0,1-2.31.2c-8.23-2.42-16.39.86-24.61.21-6.73-.53-13.16-1.82-18.57-6.11C52.61,178,51,168.68,53.21,158.52c4.09-18.71,15.38-32.74,30.23-44.05,5.72-4.35,12.25-7.63,18.69-11.57-.07-.11-.51-.84-1-1.55-7-10.65-3.63-23.61,8.33-27.95a164,164,0,0,1,31.63-7.89c37.88-5.59,75.73-4.21,113.25,3.13,10.09,2,19.9,5.75,29.54,9.49A24.09,24.09,0,0,1,293.76,86c2.13,2.85,2.52,7,3.85,11.14,5.84-1,12.69-2.18,19.54-3.29a79,79,0,0,1,8.5-1.08c4.24-.21,7.93,1.13,10.63,5,3.36-5.7,8.19-9.61,14.27-10.73A136.93,136.93,0,0,1,373.25,85c6.88-.13,11.14,5.08,11.66,12.62.25,3.54.79,7.06,1.21,10.6a21.73,21.73,0,0,1,.54,4.63c-.61,5.59-1,11.28-2.38,16.68-.7,2.66-3.11,6-5.53,6.88-7.54,2.82-15,6.62-23.47,5.77a28.76,28.76,0,0,1-6.85-1.34c-6-2.18-6-2.28-12.8-1-.38,2-.69,4.2-1.18,6.31-1.29,5.47-4.18,9.6-10,10.65q-15.33,2.76-30.7,5.19c-5.11.8-10.29,1.21-14.92,1.73-1.46,11.19-1.93,22.22-4.58,32.7-2.33,9.25-1.53,17.55,1.54,26.18,2,5.74,3.7,11.63,5.29,17.52a57.94,57.94,0,0,0,7.75,16.8c3.32,5,4.45,10.89,6.45,16.47a27.07,27.07,0,0,1,1.14,4.53c1,5.57,2.68,10.47,8,13.75,4.35,2.68,6.46,7.29,7.54,12.31.78,3.66,1.74,7.28,2.7,10.9,1.05,4-.64,6.44-4.18,8.08-16,7.39-32.27,9.44-49.18,3.38q-13.54-4.87-27.2-9.47c-5.59-1.89-7.73-6.74-5.29-12.14a7,7,0,0,0,.71-3.93c-1.9-9-4-18-6-27a10.71,10.71,0,0,0-1-2.06c-1.64-3.45-3.59-6.8-4.85-10.39C215.78,256.21,214.48,250.92,213,245.66Zm121.1-140c2.34-6.39.29-9.87-5.52-9.75a52.54,52.54,0,0,0-11.87,1.81c-1.52.4-3.5,2.14-3.81,3.57C311,110.12,309.26,119,308,128c-.61,4.35-.11,8.85-.11,13.5a20.62,20.62,0,0,0,3.6-.42c3.87-1.34,6.69-.44,8.87,3.23.86,1.46,2.75,2.3,4.18,3.42l.75-.68c-6.4-8.86-7.08-18.91-5.43-29,.92-5.61,3.5-11,5.78-16.32.5-1.14,3-2,4.5-1.93,1.05,0,2.1,1.85,3,3A11.32,11.32,0,0,1,334.06,105.63Z"/><rect class="cls-2" width="393" height="393"/></g></g></svg>