<svg xmlns="http://www.w3.org/2000/svg" viewBox="0 0 511.98 427.74"><defs><style>.cls-1{fill:#fff;}</style></defs><title>Asset 1</title><g id="Layer_2" data-name="Layer 2"><g id="Social_Media_Icons" data-name="Social Media Icons"><path id="Telegram" class="cls-1" d="M477,1.75,13.33,181.18a5.3,5.3,0,0,0-.8.38c-3.76,2.13-30,18.18,7,32.57l.38.14,110.41,35.67a6.12,6.12,0,0,0,5.09-.62L409.26,78.46a6,6,0,0,1,2.2-.83c3.81-.63,14.78-1.81,7.84,7-7.85,10-194.9,177.62-215.66,196.21a6.25,6.25,0,0,0-2.07,4.17l-9.06,108a7.1,7.1,0,0,0,2.83,5.67,6.89,6.89,0,0,0,8.17-.62l65.6-58.63a6.09,6.09,0,0,1,7.63-.39l114.45,83.1.37.25c2.77,1.71,32.69,19.12,41.33-19.76L511.89,27c.11-1.19,1.18-14.27-8.17-22C493.9-3.1,480,1,477.91,1.42A4.86,4.86,0,0,0,477,1.75Z"/></g></g></svg>